# xmcd CD database file
#
# Track frame offsets:
#	150
#	14890
#	28205
#	40327
#	53262
#	68470
#	82977
#	95892
#	111087
#	127130
#	141437
#	157672
#	177507
#	191432
#	203805
#	218910
#	232732
#	248325
#	263222
#	278257
#	294090
#	313642
#	330205
#
# Disc length: 4632 seconds
#
# Revision: 2
# Processed by: cddbd v1.5PL3 Copyright (c) Steve Scherf et al.
# Submitted via: CDex 1.51
#
DISCID=36121617
DTITLE=榊原郁恵 - 郁恵自身〜25th Anniversary Edition〜 Disc 1
DYEAR=2001
DGENRE=Pop
TTITLE0=私の先生
TTITLE1=バス通学
TTITLE2=わがまま金曜日
TTITLE3=アル・パシーノ＋アラン・ドロン＜あなた
TTITLE4=いとしのロビン・フッドさま
TTITLE5=めざめのカーニバル
TTITLE6=夏のお嬢さん
TTITLE7=Do it BANG BANG
TTITLE8=微笑日記
TTITLE9=青春気流
TTITLE10=ラブジャックサマー
TTITLE11=秋風のロンド
TTITLE12=風を見つめて
TTITLE13=イエ!イエ!お嬢さん
TTITLE14=ROBOT(ロボット)
TTITLE15=夢みるマイ・ボーイ
TTITLE16=あなたは「おもしろマガジン」
TTITLE17=想い出パズル
TTITLE18=太陽のバカンス
TTITLE19=シャイニング・ラブ
TTITLE20=イエスタディ ドリーマー
TTITLE21=ひき潮
TTITLE22=愛と風のララバイ
EXTD=YEAR: 2001
EXTT0=
EXTT1=
EXTT2=
EXTT3=
EXTT4=
EXTT5=
EXTT6=
EXTT7=
EXTT8=
EXTT9=
EXTT10=
EXTT11=
EXTT12=
EXTT13=
EXTT14=
EXTT15=
EXTT16=
EXTT17=
EXTT18=
EXTT19=
EXTT20=
EXTT21=
EXTT22=
PLAYORDER=
